<?xml version="1.0" encoding="UTF-8"?>
<svg width="40px" height="27px" viewBox="0 0 40 27" version="1.1" xmlns="http://www.w3.org/2000/svg" xmlns:xlink="http://www.w3.org/1999/xlink">
    <!-- Generator: sketchtool 41.2 (35397) - http://www.bohemiancoding.com/sketch -->
    <title>6C868A92-05C8-4388-A4B1-0A18E56BBD0D</title>
    <desc>Created with sketchtool.</desc>
    <defs></defs>
    <g id="WebUI" stroke="none" stroke-width="1" fill="none" fill-rule="evenodd">
        <g id="01-Home-Page" transform="translate(-558.000000, -1824.000000)">
            <g id="Our-Expertise" transform="translate(0.000000, 1243.000000)">
                <g id="services" transform="translate(135.000000, 574.000000)">
                    <g id="#2" transform="translate(423.000000, 0.000000)">
                        <g id="laptop_icon" transform="translate(0.000000, 1.000000)">
                            <g id="icomoon-ignore" transform="translate(1.000000, 0.000000)"></g>
                            <g id="Group-8" transform="translate(0.000000, 6.000000)" fill="#FCBB08">
                                <path d="M33.3333333,23.6567763 C35.175,23.6567763 36.65,22.1854451 36.65,20.3688853 L36.6666667,3.92943063 C36.6666667,2.11287089 35.175,0.641539695 33.3333333,0.641539695 L6.66666667,0.641539695 C4.825,0.641539695 3.33333333,2.11287089 3.33333333,3.92943063 L3.33333333,20.3688853 C3.33333333,22.1854451 4.825,23.6567763 6.66666667,23.6567763 L0,23.6567763 L0,26.9446672 L40,26.9446672 L40,23.6567763 L33.3333333,23.6567763 Z M6.66666667,3.92943063 L33.3333333,3.92943063 L33.3333333,20.3688853 L6.66666667,20.3688853 L6.66666667,3.92943063 Z" id="Page-1"></path>
                            </g>
                        </g>
                    </g>
                </g>
            </g>
        </g>
    </g>
</svg>